<svg xmlns="http://www.w3.org/2000/svg" viewBox="0 0 64 64" role="img" aria-labelledby="title desc" shape-rendering="geometricPrecision">
  <title id="title">BK geometric monogram</title>
  <desc id="desc">A crisp black-and-white BK monogram drawn on an eight-unit grid.</desc>
  <rect width="64" height="64" rx="12" fill="#0A0C10"/>
  <g fill="#F4F7FB">
    <path fill-rule="evenodd" d="M8 8h14c8 0 12 4 12 12 0 5-3 9-7 11 5 1 8 5 8 12 0 8-5 13-13 13H8V8Zm8 8v11h5c4 0 6-2 6-6s-2-5-6-5h-5Zm0 20v12h6c4 0 6-2 6-6s-2-6-6-6h-6Z"/>
    <path d="M40 8h8v18l5-18h8L51 32l10 24h-9l-4-18v18h-8V8Z"/>
  </g>
</svg>
